<?xml version="1.0" encoding="UTF-8"?>
<!DOCTYPE svg PUBLIC "-//W3C//DTD SVG 1.1//EN" "http://www.w3.org/Graphics/SVG/1.1/DTD/svg11.dtd">
<svg xmlns="http://www.w3.org/2000/svg" version="1.1" viewBox="0 0 73 73" stroke="none">
	<rect width="100%" height="100%" fill="#ffffff"/>
	<path d="M20,20h7v1h-7z M33,20h2v2h-2z M36,20h1v4h-1z M37,20h1v1h-1z M39,20h1v1h-1z M42,20h1v4h-1z M43,20h2v1h-2z M46,20h7v1h-7z M20,21h1v6h-1z M26,21h1v6h-1z M30,21h1v1h-1z M32,21h1v1h-1z M35,21h1v1h-1z M38,21h1v1h-1z M41,21h1v5h-1z M44,21h1v1h-1z M46,21h1v6h-1z M52,21h1v6h-1z M22,22h3v3h-3z M28,22h1v6h-1z M31,22h1v4h-1z M33,22h1v1h-1z M39,22h2v1h-2z M43,22h1v3h-1z M48,22h3v3h-3z M29,23h2v1h-2z M34,23h1v1h-1z M37,23h1v1h-1z M29,24h1v1h-1z M32,24h1v4h-1z M35,24h1v2h-1z M38,24h3v1h-3z M44,24h1v1h-1z M30,25h1v2h-1z M36,25h1v2h-1z M21,26h5v1h-5z M34,26h1v1h-1z M38,26h1v5h-1z M40,26h1v1h-1z M42,26h1v1h-1z M44,26h1v1h-1z M47,26h5v1h-5z M31,27h1v2h-1z M35,27h1v2h-1z M41,27h1v1h-1z M20,28h1v1h-1z M22,28h5v1h-5z M30,28h1v1h-1z M33,28h2v1h-2z M37,28h1v1h-1z M40,28h1v1h-1z M44,28h1v5h-1z M46,28h5v1h-5z M21,29h1v2h-1z M24,29h1v1h-1z M36,29h1v1h-1z M39,29h1v1h-1z M41,29h1v1h-1z M43,29h1v1h-1z M45,29h2v2h-2z M47,29h1v1h-1z M49,29h2v1h-2z M23,30h1v2h-1z M26,30h3v1h-3z M30,30h2v2h-2z M35,30h1v4h-1z M42,30h1v5h-1z M48,30h1v3h-1z M50,30h2v2h-2z M22,31h1v1h-1z M24,31h2v1h-2z M32,31h1v4h-1z M34,31h1v1h-1z M36,31h1v1h-1z M39,31h1v1h-1z M41,31h1v1h-1z M49,31h1v4h-1z M52,31h1v1h-1z M20,32h1v2h-1z M26,32h2v1h-2z M31,32h1v2h-1z M40,32h1v5h-1z M47,32h1v1h-1z M51,32h1v3h-1z M21,33h1v1h-1z M27,33h4v1h-4z M33,33h2v1h-2z M36,33h4v1h-4z M43,33h1v1h-1z M45,33h2v1h-2z M52,33h1v1h-1z M24,34h3v1h-3z M29,34h2v2h-2z M33,34h1v1h-1z M37,34h1v1h-1z M50,34h1v2h-1z M22,35h2v2h-2z M27,35h1v1h-1z M31,35h1v2h-1z M36,35h1v6h-1z M39,35h1v3h-1z M41,35h1v1h-1z M45,35h1v1h-1z M48,35h1v2h-1z M20,36h2v1h-2z M24,36h2v4h-2z M26,36h1v1h-1z M28,36h1v1h-1z M32,36h1v4h-1z M34,36h1v1h-1z M43,36h1v2h-1z M47,36h1v2h-1z M52,36h1v1h-1z M21,37h1v3h-1z M23,37h1v1h-1z M27,37h1v2h-1z M29,37h2v2h-2z M38,37h1v1h-1z M41,37h2v1h-2z M44,37h3v2h-3z M49,37h2v1h-2z M22,38h1v1h-1z M26,38h1v1h-1z M28,38h1v1h-1z M31,38h1v2h-1z M35,38h1v1h-1z M37,38h1v1h-1z M40,38h1v1h-1z M48,38h1v3h-1z M50,38h2v2h-2z M20,39h1v6h-1z M23,39h1v2h-1z M30,39h1v1h-1z M41,39h1v1h-1z M43,39h1v3h-1z M45,39h2v1h-2z M49,39h1v3h-1z M24,40h1v1h-1z M26,40h2v1h-2z M35,40h1v5h-1z M42,40h1v1h-1z M44,40h2v1h-2z M47,40h1v1h-1z M22,41h1v2h-1z M28,41h2v1h-2z M32,41h1v2h-1z M34,41h1v1h-1z M38,41h4v1h-4z M46,41h1v1h-1z M52,41h1v1h-1z M24,42h3v1h-3z M30,42h1v1h-1z M33,42h1v1h-1z M36,42h2v1h-2z M41,42h1v2h-1z M47,42h1v1h-1z M51,42h1v1h-1z M25,43h1v1h-1z M28,43h2v1h-2z M34,43h1v2h-1z M40,43h1v2h-1z M42,43h1v1h-1z M44,43h1v6h-1z M46,43h1v2h-1z M49,43h2v1h-2z M23,44h2v1h-2z M26,44h1v1h-1z M30,44h1v1h-1z M32,44h2v2h-2z M36,44h2v2h-2z M45,44h1v1h-1z M47,44h2v1h-2z M52,44h1v2h-1z M28,45h1v1h-1z M31,45h1v4h-1z M39,45h1v1h-1z M42,45h1v5h-1z M48,45h1v5h-1z M50,45h1v3h-1z M20,46h7v1h-7z M33,46h1v2h-1z M35,46h2v1h-2z M40,46h1v7h-1z M43,46h1v1h-1z M46,46h1v1h-1z M51,46h1v2h-1z M20,47h1v6h-1z M26,47h1v6h-1z M28,47h1v4h-1z M32,47h1v1h-1z M36,47h1v1h-1z M41,47h1v1h-1z M22,48h3v3h-3z M30,48h1v3h-1z M38,48h1v4h-1z M45,48h3v1h-3z M49,48h1v1h-1z M52,48h1v2h-1z M29,49h1v2h-1z M35,49h2v1h-2z M39,49h1v1h-1z M43,49h1v2h-1z M47,49h1v4h-1z M51,49h1v1h-1z M31,50h1v1h-1z M33,50h1v3h-1z M34,50h1v1h-1z M37,50h1v1h-1z M44,50h3v1h-3z M50,50h1v2h-1z M36,51h1v1h-1z M39,51h1v1h-1z M41,51h1v1h-1z M45,51h1v2h-1z M48,51h2v2h-2z M21,52h5v1h-5z M28,52h2v1h-2z M31,52h1v1h-1z M34,52h1v1h-1z M37,52h1v1h-1z M43,52h2v1h-2z M46,52h1v1h-1z M51,52h1v1h-1z" fill="#000000"/>
</svg>
